<svg width="60" height="60" viewBox="0 0 60 60" fill="none" xmlns="http://www.w3.org/2000/svg">
<g clip-path="url(#clip0_1171_2768)">
<path d="M0 15.3516C0.5244 15.439 0.907095 15.5275 1.39132 15.7115C1.52626 15.7624 1.6612 15.8134 1.80023 15.8658C1.94814 15.9223 2.09605 15.9789 2.24396 16.0355C2.4009 16.0949 2.55786 16.1543 2.71485 16.2137C3.05295 16.3416 3.3909 16.4699 3.72873 16.5986C4.2711 16.8051 4.81382 17.0107 5.35661 17.2161C5.54351 17.2868 5.73041 17.3575 5.91731 17.4283C6.0108 17.4637 6.10428 17.499 6.20059 17.5355C6.48848 17.6445 6.77634 17.7536 7.06419 17.8627C8.94973 18.5773 10.8376 19.2857 12.7259 19.993C13.1605 20.1558 13.5951 20.3187 14.0296 20.4816C14.7331 20.7453 15.4365 21.0089 16.1399 21.2725C16.2283 21.3056 16.3166 21.3387 16.4075 21.3728C16.5883 21.4405 16.7691 21.5083 16.9499 21.576C18.2945 22.0799 19.6391 22.5838 20.9836 23.0878C21.5283 23.292 22.0731 23.4961 22.6178 23.7002C22.9571 23.8273 23.2963 23.9545 23.6356 24.0817C23.7897 24.1394 23.9439 24.1972 24.098 24.2549C25.4424 24.7584 26.7834 25.2702 28.125 25.7812C28.125 36.9574 28.125 48.1336 28.125 59.6484C27.6006 59.561 27.2179 59.4725 26.7337 59.2885C26.5987 59.2376 26.4638 59.1867 26.3248 59.1342C26.1769 59.0777 26.0289 59.0211 25.881 58.9645C25.7241 58.9051 25.5671 58.8457 25.4101 58.7863C25.072 58.6584 24.7341 58.5301 24.3963 58.4014C23.8539 58.1949 23.3112 57.9893 22.7684 57.7839C22.5815 57.7132 22.3946 57.6425 22.2077 57.5717C22.0675 57.5186 22.0675 57.5186 21.9244 57.4645C21.6365 57.3555 21.3487 57.2464 21.0608 57.1373C19.1753 56.4227 17.2874 55.7143 15.3991 55.007C14.9645 54.8442 14.5299 54.6813 14.0954 54.5184C13.3919 54.2547 12.6885 53.9911 11.9851 53.7275C11.8526 53.6779 11.8526 53.6779 11.7175 53.6272C11.5367 53.5595 11.3559 53.4917 11.1751 53.424C9.83052 52.9201 8.48591 52.4162 7.14136 51.9122C6.59666 51.708 6.05195 51.5039 5.50721 51.2998C5.16794 51.1727 4.82869 51.0455 4.48944 50.9183C4.3353 50.8605 4.18114 50.8028 4.02698 50.7451C2.68259 50.2416 1.34157 49.7298 0 49.2188C0 38.0426 0 26.8664 0 15.3516ZM7.5 42.5391C7.5 43.8152 7.5 45.0914 7.5 46.4062C8.7855 46.8857 8.7855 46.8857 10.0713 47.3643C10.5955 47.5593 11.1197 47.7544 11.6437 47.95C12.0661 48.1076 12.4886 48.2649 12.9111 48.4219C13.0726 48.4819 13.2339 48.5421 13.3953 48.6024C13.6207 48.6867 13.8464 48.7705 14.0721 48.8541C14.2006 48.902 14.3292 48.9499 14.4616 48.9992C14.7492 49.114 14.7492 49.114 15 49.1016C15 47.8254 15 46.5492 15 45.2344C13.7383 44.7548 13.7383 44.7548 12.4761 44.2763C11.9614 44.0814 11.4467 43.8864 10.9322 43.6906C10.5176 43.5328 10.1027 43.3756 9.68762 43.2188C9.5292 43.1588 9.37086 43.0986 9.21259 43.0382C8.99116 42.9538 8.76943 42.8701 8.54768 42.7865C8.42147 42.7386 8.29526 42.6907 8.16522 42.6414C7.85085 42.5209 7.85085 42.5209 7.5 42.5391Z" fill="#FF9500"/>
<path d="M60 15.3516C60 26.5277 60 37.7039 60 49.2188C50.6984 52.7237 50.6984 52.7237 47.9519 53.7525C47.5301 53.9105 47.1084 54.0685 46.6866 54.2266C46.0669 54.4589 45.4472 54.6912 44.8274 54.9234C43.6076 55.3805 42.3878 55.8379 41.1681 56.2953C41.0727 56.3311 40.9773 56.3668 40.8791 56.4037C40.4051 56.5814 39.9312 56.7592 39.4573 56.9369C39.0095 57.1048 38.5617 57.2728 38.1139 57.4407C37.9437 57.5045 37.7736 57.5683 37.6034 57.6321C37.198 57.7842 36.7925 57.9362 36.387 58.088C35.6527 58.3629 34.9189 58.639 34.1862 58.9182C33.9893 58.9929 33.9893 58.9929 33.7884 59.0692C33.5456 59.1614 33.3029 59.2541 33.0604 59.3473C32.9547 59.3874 32.8491 59.4274 32.7402 59.4687C32.6031 59.5211 32.6031 59.5211 32.4633 59.5746C32.2266 59.6484 32.2266 59.6484 31.875 59.6484C31.875 48.4723 31.875 37.2961 31.875 25.7812C40.8939 22.3828 40.8939 22.3828 41.25 22.3828C41.25 25.4379 41.25 28.493 41.25 31.6406C43.587 30.7542 43.587 30.7542 45.9235 29.8666C46.2157 29.756 46.5081 29.6454 46.8004 29.5349C46.8764 29.5059 46.9523 29.4769 47.0306 29.4471C47.2543 29.3617 47.4783 29.2772 47.7023 29.1927C47.8285 29.1449 47.9547 29.097 48.0848 29.0476C48.3984 28.9453 48.3984 28.9453 48.75 28.9453C48.75 25.8129 48.75 22.6805 48.75 19.4531C50.0262 18.9721 51.3023 18.4912 52.6172 17.9956C53.466 17.6757 53.466 17.6757 54.3148 17.3557C54.6495 17.2296 54.9842 17.1036 55.3189 16.9777C55.495 16.9114 55.6711 16.8452 55.8472 16.7789C55.9315 16.7472 56.0158 16.7155 56.1027 16.6828C56.6405 16.4803 57.1778 16.2763 57.7148 16.0716C57.9119 15.9968 57.9119 15.9968 58.1128 15.9205C58.3528 15.8293 58.5927 15.7378 58.8323 15.6457C58.9362 15.6063 59.0401 15.5669 59.1472 15.5264C59.2363 15.4923 59.3255 15.4583 59.4173 15.4232C59.6484 15.3516 59.6484 15.3516 60 15.3516Z" fill="#FF9500"/>
<path d="M32.2783 1.0353C32.4347 1.09481 32.5912 1.15421 32.7477 1.2135C33.0838 1.3411 33.4196 1.46945 33.7553 1.59841C34.2943 1.80549 34.834 2.01085 35.3738 2.2159C35.9404 2.43121 36.5069 2.6466 37.0733 2.86255C38.8681 3.54684 40.6663 4.22204 42.4653 4.89533C42.9882 5.09104 43.511 5.28697 44.0338 5.48296C44.2094 5.54879 44.385 5.61461 44.5606 5.68044C44.6477 5.7131 44.7349 5.74576 44.8246 5.77941C45.2658 5.94479 45.707 6.11011 46.1482 6.27544C46.2363 6.30844 46.3243 6.34144 46.4151 6.37544C46.5946 6.44271 46.7741 6.50998 46.9536 6.57724C48.5363 7.17032 50.119 7.76347 51.7017 8.35677C51.8355 8.40696 51.8355 8.40696 51.9721 8.45817C54.6499 9.46201 57.3268 10.4682 60 11.4842C60 11.5616 60 11.6389 60 11.7186C59.0004 12.0957 58.0008 12.4728 57.0011 12.8497C56.5365 13.0248 56.072 13.2 55.6074 13.3753C55.518 13.409 55.4286 13.4428 55.3364 13.4775C55.1565 13.5454 54.9766 13.6133 54.7967 13.6813C54.3502 13.8498 53.9035 14.0177 53.4563 14.1844C52.7046 14.4651 51.954 14.7464 51.2108 15.0491C50.9923 15.138 50.773 15.2252 50.5538 15.3123C50.2911 15.4169 50.0294 15.5244 49.7693 15.6354C49.0098 15.9335 48.536 15.9735 47.7679 15.6794C47.4481 15.534 47.1423 15.3837 46.8416 15.2017C45.9449 14.6897 45.006 14.2843 44.0618 13.8685C43.5531 13.6436 43.0464 13.4143 42.5395 13.1853C42.4403 13.1405 42.3411 13.0958 42.239 13.0497C41.6849 12.7998 41.1312 12.5492 40.5779 12.2979C40.2623 12.1546 39.9466 12.0119 39.6308 11.8692C39.4172 11.7724 39.2038 11.6749 38.9904 11.5775C38.8631 11.5199 38.7358 11.4624 38.6046 11.4032C38.4951 11.3534 38.3856 11.3036 38.2728 11.2523C37.6472 11.0061 37.3385 10.9927 36.7004 11.2611C36.6138 11.2994 36.5272 11.3377 36.438 11.3771C36.3465 11.4161 36.255 11.4551 36.1608 11.4952C35.8643 11.622 35.5689 11.7508 35.2734 11.8797C35.0713 11.9666 34.8691 12.0534 34.6668 12.14C34.175 12.3509 33.6839 12.5635 33.193 12.7765C32.7087 12.9861 32.2231 13.1928 31.7377 13.3998C31.3142 13.5805 30.8914 13.7627 30.4688 13.9452C30.8115 14.2879 31.2419 14.4162 31.685 14.5938C31.7862 14.6349 31.8874 14.6761 31.9917 14.7184C32.2112 14.8076 32.4308 14.8965 32.6506 14.9851C33.2351 15.221 33.8189 15.4587 34.4028 15.6961C34.5228 15.7448 34.6429 15.7936 34.7665 15.8438C36.0294 16.3569 37.2886 16.8789 38.5474 17.4022C38.8511 17.5284 39.1548 17.6546 39.4585 17.7808C39.638 17.8554 39.8174 17.93 39.9968 18.0047C40.4134 18.1779 40.8306 18.3492 41.25 18.5155C41.25 18.5928 41.25 18.6702 41.25 18.7498C40.2443 19.1289 39.2386 19.508 38.2329 19.887C37.7656 20.0631 37.2982 20.2392 36.8309 20.4154C36.7407 20.4494 36.6505 20.4834 36.5576 20.5184C36.3765 20.5867 36.1954 20.655 36.0142 20.7233C35.5674 20.8918 35.1203 21.06 34.6731 21.2275C33.8826 21.5237 33.0939 21.8227 32.3099 22.1355C32.1817 22.1859 32.0535 22.2363 31.9215 22.2882C31.6901 22.3795 31.4593 22.4724 31.2295 22.5676C29.9316 23.0749 28.9748 22.6528 27.7217 22.1675C27.5653 22.108 27.4088 22.0486 27.2523 21.9893C26.9162 21.8617 26.5804 21.7334 26.2447 21.6044C25.7057 21.3973 25.166 21.192 24.6262 20.9869C24.0596 20.7716 23.4931 20.5562 22.9267 20.3403C21.1319 19.656 19.3337 18.9808 17.5347 18.3075C17.0118 18.1118 16.489 17.9158 15.9662 17.7198C15.7906 17.654 15.615 17.5882 15.4394 17.5224C15.3523 17.4897 15.2651 17.457 15.1754 17.4234C14.7342 17.258 14.293 17.0927 13.8518 16.9274C13.7637 16.8944 13.6757 16.8614 13.5849 16.8274C13.4054 16.7601 13.2259 16.6928 13.0464 16.6256C11.4637 16.0325 9.88098 15.4393 8.29834 14.846C8.16446 14.7958 8.16446 14.7958 8.02787 14.7446C5.35008 13.7408 2.67319 12.7346 0 11.7186C0 11.6412 0 11.5639 0 11.4842C4.09295 9.94026 8.18657 8.39809 12.2827 6.86263C12.3689 6.83032 12.4551 6.79801 12.5439 6.76472C13.3344 6.4684 14.125 6.17212 14.9155 5.87587C15.8237 5.53553 16.7319 5.19513 17.6401 4.8546C17.733 4.81977 17.8259 4.78494 17.9216 4.74906C18.3894 4.57361 18.8573 4.39814 19.3251 4.22262C20.2313 3.88267 21.1377 3.54303 22.0442 3.2041C22.3868 3.076 22.7293 2.94785 23.0717 2.81966C23.1543 2.78876 23.2369 2.75786 23.322 2.72602C24.3821 2.32903 25.4397 1.92593 26.4949 1.51595C26.8201 1.39051 27.1453 1.26522 27.4705 1.13997C27.754 1.02995 28.0364 0.917541 28.3189 0.804932C28.4848 0.740913 28.6507 0.677008 28.8167 0.613244C28.9538 0.559126 29.091 0.505008 29.2323 0.44925C30.3164 0.194334 31.275 0.646751 32.2783 1.0353Z" fill="#FF9500"/>
</g>
<defs>
<clipPath id="clip0_1171_2768">
<rect width="60" height="60" fill="white"/>
</clipPath>
</defs>
</svg>
